<svg width="134" height="16" viewBox="0 0 134 16" fill="none" xmlns="http://www.w3.org/2000/svg">
<path d="M16.3373 6.08023C16.3373 4.09003 15.007 2.28213 12.485 2.26753C10.788 2.26753 5.697 2.25073 4 2.25073V13.7708H6.0188V9.92653H11.3595L14.4804 13.7708H16.8796V13.624L13.6377 9.69593C15.6722 9.25123 16.3451 7.65733 16.3451 6.08023H16.3373ZM6.0266 7.96773V4.28713H12.4928C13.7606 4.28713 14.3263 5.20783 14.3263 6.12853C14.3263 7.04913 13.7762 7.96983 12.4928 7.96983L6.0266 7.96773Z" fill="#485B60"/>
<path d="M30.3229 2.25493C28.6415 2.25493 23.5661 2.27173 21.8847 2.27173V13.775H23.9016V10.3858H30.3229C35.566 10.3858 35.5504 2.25073 30.3229 2.25073V2.25493ZM30.3229 8.39773H23.9016V4.32073H30.3229C32.8898 4.32073 32.9054 8.39773 30.3229 8.39773Z" fill="#485B60"/>
<path d="M67.1983 7.823C68.1912 7.3448 68.5891 6.4912 68.5891 5.602C68.5891 3.295 67.015 2.2674 64.9045 2.2674H56.4351V13.7707H64.9045C67.1203 13.7707 68.909 12.9507 68.909 10.3858C68.909 9.6622 68.4506 8.2319 67.1983 7.823ZM58.4208 4.2388H64.9025C66.1879 4.2388 66.5839 5.1259 66.5839 5.6523C66.5839 6.3088 66.1723 6.8855 64.9025 6.8855H58.4228L58.4208 4.2388ZM64.9025 11.7511H58.4228V8.7919H64.9045C65.7296 8.7919 66.9077 9.333 66.9077 10.369C66.9077 11.4533 65.7374 11.7511 64.9045 11.7511" fill="#485B60"/>
<path d="M75.755 2.2674H73.7366V13.7728H84.652V11.7658H75.755V2.2674Z" fill="#485B60"/>
<path d="M91.499 2.2674H89.495V13.7728H91.499V2.2674Z" fill="#485B60"/>
<path d="M106.625 10.5934C106.336 10.9022 106.008 11.1649 105.65 11.3736C105.247 11.6035 104.819 11.7782 104.376 11.8937C103.873 12.0234 103.357 12.0868 102.839 12.0825C102.16 12.0945 101.484 11.9839 100.84 11.7553C100.307 11.5624 99.8139 11.2596 99.3889 10.864C99.0069 10.5016 98.7049 10.0534 98.5029 9.55107C98.3059 9.06107 98.2039 8.53297 98.2049 7.99917C98.2029 7.45977 98.3049 6.92597 98.5029 6.43037C98.7049 5.92817 99.0069 5.47987 99.3889 5.11757C99.8139 4.72187 100.309 4.42167 100.844 4.23457C101.489 4.01077 102.163 3.90307 102.841 3.91577C103.334 3.91337 103.827 3.97107 104.308 4.08777C104.735 4.19087 105.15 4.34567 105.545 4.54917C105.9 4.73327 106.229 4.97287 106.52 5.26017C106.695 5.43677 106.854 5.63127 106.994 5.84107L108.695 4.83017C108.479 4.49487 108.231 4.18547 107.953 3.90747C107.56 3.51247 107.12 3.17537 106.645 2.90497C106.116 2.60677 105.553 2.38267 104.971 2.23807C104.307 2.07517 103.627 1.99567 102.946 2.00107C101.969 1.98497 100.996 2.15097 100.071 2.49177C99.2939 2.77947 98.5759 3.22447 97.9549 3.80257C97.3999 4.32667 96.9559 4.97187 96.6519 5.69517C96.3479 6.41847 96.1899 7.20317 96.1899 7.99707C96.1899 8.79087 96.3479 9.57557 96.6519 10.2989C96.9559 11.0222 97.3999 11.6674 97.9549 12.1915C98.5749 12.7706 99.2939 13.2156 100.071 13.5023C100.992 13.8438 101.961 14.0119 102.935 13.9993C103.637 14.0055 104.338 13.9203 105.022 13.7456C105.617 13.591 106.191 13.3534 106.728 13.0388C107.213 12.7574 107.658 12.4044 108.051 11.9902C108.336 11.6863 108.588 11.3478 108.8 10.9814L107.091 9.97467C106.958 10.2023 106.802 10.4133 106.625 10.6039" fill="#485B60"/>
<path d="M47.9033 2.25488C47.6764 2.25458 47.4517 2.30238 47.2421 2.39548C47.0324 2.48868 46.8419 2.62538 46.6814 2.79768C46.5208 2.97008 46.3935 3.17478 46.3066 3.40008C46.2198 3.62548 46.1751 3.86698 46.1751 4.11088H49.3954V8.08098C49.3356 8.60848 49.2271 9.12838 49.0716 9.63288C48.8697 10.1352 48.5674 10.5834 48.1861 10.9458C47.7604 11.3419 47.2667 11.6447 46.7329 11.8371C45.6679 12.2907 44.482 12.2907 43.417 11.8371C42.8832 11.6447 42.3895 11.3419 41.9638 10.9458C41.5825 10.5834 41.2801 10.1352 41.0782 9.63288C40.9228 9.12838 40.8143 8.60848 40.7544 8.08098V2.25488H38.761V8.08098C38.7563 8.87468 38.9106 9.66008 39.2136 10.3839C39.5165 11.1077 39.9609 11.7528 40.5165 12.2754C41.1381 12.8524 41.8573 13.2953 42.6348 13.5799C44.2195 14.1331 45.9264 14.1331 47.5112 13.5799C48.2884 13.2932 49.007 12.8482 49.6276 12.2691C50.1832 11.7465 50.6275 11.1014 50.9305 10.3776C51.2334 9.65378 51.3878 8.86838 51.3831 8.07468V2.25488H47.9033Z" fill="#485B60"/>
<path d="M118.502 4.1612L113.789 13.7707H111.782L117.384 2.3387V2.2674H120.361L126 13.7707H123.993L122.795 11.3379H119.204C118.971 11.3379 118.74 11.2885 118.524 11.1925C118.309 11.0965 118.113 10.9557 117.948 10.7783C117.783 10.6009 117.652 10.3903 117.563 10.1585C117.473 9.9267 117.427 9.6782 117.427 9.4273H121.855L119.267 4.1612H118.502Z" fill="#485B60"/>
</svg>
